<?xml version="1.0" encoding="utf-8"?>
<!-- Generator: Adobe Illustrator 28.0.0, SVG Export Plug-In . SVG Version: 6.00 Build 0)  -->
<svg version="1.1" id="Capa_1" xmlns="http://www.w3.org/2000/svg" xmlns:xlink="http://www.w3.org/1999/xlink" x="0px" y="0px"
	 viewBox="0 0 113.3 92.6" style="enable-background:new 0 0 113.3 92.6;" xml:space="preserve">
<style type="text/css">
	.st0{fill:#E15200;}
	.st1{enable-background:new    ;}
	.st2{fill:#FFFFFF;}
</style>
<rect class="st0" width="113.3" height="92.6"/>
<g class="st1">
	<path class="st2" d="M10.6,68h10.7v3h-6v2h5.9v3.1h-5.7v4.5h-4.8V68z"/>
	<path class="st2" d="M29,67.7c1.2,0,2.2,0.2,3.2,0.5c0.7,0.3,1.3,0.6,1.9,1.2c0.5,0.5,1,1.1,1.2,1.8c0.4,0.9,0.6,2,0.6,3.1
		c0,1-0.1,1.9-0.4,2.7c-0.3,0.8-0.7,1.5-1.3,2.1s-1.2,1-2,1.3c-0.9,0.4-2,0.6-3.2,0.6c-1.2,0-2.2-0.2-3.2-0.6
		c-0.7-0.3-1.3-0.7-1.8-1.2c-0.5-0.5-1-1.1-1.2-1.7c-0.4-0.9-0.6-1.9-0.6-3.1c0-1,0.1-1.9,0.4-2.6c0.3-0.8,0.7-1.4,1.2-2
		s1.2-1,1.8-1.3C26.5,67.9,27.7,67.7,29,67.7z M29,77.8c0.4,0,0.8-0.1,1-0.3c0.3-0.2,0.5-0.6,0.7-1c0.2-0.5,0.2-1.2,0.2-2.1
		c0-0.6,0-1.1-0.1-1.6c-0.1-0.5-0.2-0.9-0.3-1.1c-0.1-0.3-0.3-0.5-0.6-0.7s-0.5-0.2-0.9-0.2c-0.4,0-0.7,0.1-1,0.3
		c-0.3,0.2-0.5,0.6-0.7,1.2c-0.2,0.6-0.3,1.3-0.3,2.3c0,1.3,0.2,2.2,0.6,2.8C28,77.6,28.4,77.8,29,77.8z"/>
	<path class="st2" d="M37.1,68h7.9c0.6,0,1.1,0,1.4,0.1c0.5,0.1,0.9,0.2,1.3,0.4s0.8,0.5,1,0.8c0.3,0.3,0.5,0.6,0.6,1
		s0.2,0.7,0.2,1.2c0,0.4,0,0.7-0.1,1c-0.1,0.3-0.2,0.6-0.3,0.8s-0.3,0.4-0.5,0.6c-0.3,0.2-0.6,0.4-0.9,0.6c-0.2,0.1-0.6,0.2-1.1,0.4
		c0.5,0.1,0.9,0.3,1.2,0.4s0.6,0.4,0.8,0.7c0.2,0.3,0.4,0.6,0.5,1c0.1,0.2,0.2,0.8,0.4,1.5c0.2,1.2,0.4,1.9,0.5,2.2h-5l-0.4-2.8
		c-0.1-0.6-0.2-1-0.5-1.2c-0.2-0.2-0.6-0.3-1.1-0.3h-1.1v4.2h-4.8V68z M41.7,70.8v2.8h1.5c0.6,0,1-0.1,1.2-0.2
		c0.4-0.2,0.6-0.6,0.6-1.1c0-0.5-0.2-0.9-0.5-1.1c-0.2-0.2-0.7-0.3-1.3-0.3H41.7z"/>
	<path class="st2" d="M50.4,68h13.2v3.7h-4.2v8.9h-4.8v-8.9h-4.2V68z"/>
	<path class="st2" d="M64.7,68h10.7v3h-6.2v1.8h5.9v3h-5.9v1.9h6.3v3H64.7V68z"/>
	<path class="st2" d="M87.8,68v3.9l-5.9,5.4H88v3.3H76.4v-3.9l6.2-5.5h-5.9V68H87.8z"/>
	<path class="st2" d="M92.5,68h6.6l4.5,12.6h-5l-0.8-2.8h-4l-0.8,2.8h-4.8L92.5,68z M94.3,74.9h2.8l-1.4-4.1L94.3,74.9z"/>
</g>
<polygon class="st2" points="67.9,48.5 64.5,55.4 58.8,39.3 54.5,39.3 48.8,55.4 45.4,48.5 43,48.5 36.4,64.5 56.7,64.5 76.9,64.5 
	70.3,48.5 "/>
<path class="st2" d="M33.1,64.5c-0.6-2.2-1-4.4-1-6.8c0-13.5,11-24.5,24.5-24.5s24.5,11,24.5,24.5c0,2.4-0.3,4.6-1,6.8h2.7
	c0.6-2.2,0.9-4.4,0.9-6.8c0-14.9-12.2-27.1-27.1-27.1S29.5,42.8,29.5,57.7c0,2.3,0.3,4.6,0.9,6.8H33.1z"/>
</svg>
