<?xml version="1.0" encoding="UTF-8"?><svg id="Capa_1" xmlns="http://www.w3.org/2000/svg" viewBox="0 0 141.7 141.7"><defs><style>.cls-1{fill:#222221;}.cls-1,.cls-2{stroke-width:0px;}.cls-2{fill:#fff;}</style></defs><rect class="cls-2" x=".9" y=".9" width="139.9" height="139.9" rx="9.2" ry="9.2"/><polygon class="cls-1" points="97.8 65 89.7 81.6 75.8 42.8 65.6 42.8 51.7 81.6 43.5 65 37.6 65 21.7 103.7 70.7 103.7 119.6 103.7 103.8 65 97.8 65"/><path class="cls-1" d="m13.9,103.7c-1.5-5.2-2.3-10.7-2.3-16.4,0-32.6,26.5-59.1,59.1-59.1s59.1,26.5,59.1,59.1-.8,11.2-2.3,16.4h6.6c1.4-5.2,2.1-10.7,2.1-16.4,0-36.1-29.4-65.5-65.5-65.5S5.2,51.2,5.2,87.3s.7,11.1,2.1,16.4h6.6Z"/></svg>